<?xml version="1.0" encoding="iso-8859-1"?>
<!-- Generator: Adobe Illustrator 19.0.0, SVG Export Plug-In . SVG Version: 6.00 Build 0)  -->
<svg version="1.1" id="Layer_1" xmlns="http://www.w3.org/2000/svg" xmlns:xlink="http://www.w3.org/1999/xlink" x="0px" y="0px"
	 viewBox="0 0 511.995 511.995" style="enable-background:new 0 0 511.995 511.995;" xml:space="preserve">
<circle style="fill:#FDDF6D;" cx="257.824" cy="255.997" r="254.171"/>
<path style="fill:#FCC56B;" d="M312.299,472.641c-140.374,0-254.169-113.795-254.169-254.169c0-74.997,32.488-142.397,84.151-188.92
	C59.994,71.624,3.662,157.23,3.662,255.993c0,140.374,113.795,254.169,254.169,254.169c65.378,0,124.983-24.692,170.018-65.248
	C393.183,462.64,353.909,472.641,312.299,472.641z"/>
<g>
	<path style="fill:#7F184C;" d="M433.662,208.373c-3.762,0-7.388-2.06-9.218-5.64c-6.682-13.082-19.192-21.211-32.651-21.211
		c-13.119,0-25.793,8.235-33.08,21.488c-2.75,5.006-9.04,6.83-14.042,4.081c-5.005-2.75-6.831-9.037-4.081-14.042
		c10.919-19.867,30.539-32.207,51.202-32.207c21.267,0,40.835,12.447,51.068,32.485c2.597,5.085,0.58,11.313-4.507,13.912
		C436.852,208.007,435.244,208.373,433.662,208.373z"/>
	<path style="fill:#7F184C;" d="M261.528,208.373c-3.762,0-7.388-2.06-9.218-5.64c-6.682-13.082-19.192-21.211-32.651-21.211
		c-13.119,0-25.793,8.235-33.08,21.488c-2.75,5.006-9.039,6.83-14.042,4.081c-5.005-2.75-6.831-9.037-4.081-14.042
		c10.919-19.867,30.539-32.207,51.202-32.207c21.267,0,40.835,12.447,51.068,32.485c2.597,5.085,0.58,11.313-4.507,13.912
		C264.717,208.007,263.11,208.373,261.528,208.373z"/>
</g>
<g>
	<path style="fill:#F9A880;" d="M148.605,240.258c-18.875,0-34.178,15.302-34.178,34.178h68.356
		C182.782,255.56,167.48,240.258,148.605,240.258z"/>
	<path style="fill:#F9A880;" d="M446.722,235.678c-18.875,0-34.178,15.302-34.178,34.178h68.356
		C480.9,250.98,465.598,235.678,446.722,235.678z"/>
</g>
<path style="fill:#3FA9F5;" d="M106.928,147.301c0,29.527-23.936,53.463-53.463,53.463S0,176.827,0,147.301
	S53.463,40.771,53.463,40.771S106.928,117.774,106.928,147.301z"/>
<ellipse transform="matrix(0.2723 -0.9622 0.9622 0.2723 131.3864 351.2922)" style="fill:#FCEB88;" cx="297.945" cy="88.782" rx="29.641" ry="53.078"/>
<path style="fill:#7F184C;" d="M398.74,363.005c-19.394-16.195-53.939-25.864-92.405-25.864c-36.794,0-72.312,9.82-92.692,25.631
	c-4.512,3.5-5.333,9.995-1.832,14.506c2.039,2.628,5.09,4.002,8.177,4.002c2.214,0,4.446-0.709,6.331-2.17
	c16.929-13.132,47.591-21.289,80.018-21.289c33.267,0,63.596,8.069,79.152,21.056c4.381,3.66,10.902,3.073,14.563-1.31
	C403.71,373.185,403.123,366.664,398.74,363.005z"/>
<g>
</g>
<g>
</g>
<g>
</g>
<g>
</g>
<g>
</g>
<g>
</g>
<g>
</g>
<g>
</g>
<g>
</g>
<g>
</g>
<g>
</g>
<g>
</g>
<g>
</g>
<g>
</g>
<g>
</g>
</svg>
