<svg viewBox="0 0 65 64" xmlns="http://www.w3.org/2000/svg">
  <g transform="translate(.5)" fill="none" fill-rule="evenodd">
    <!-- <circle fill="#FFF" cx="32" cy="32" r="32"/> -->
    <g transform="translate(11.327 10.761)">
      <ellipse fill="#F5BF92" cx="37.109" cy="27.056" rx="2.855" ry="2.87"/>
      <ellipse fill="#F5BF92" cx="4.486" cy="27.056" rx="2.855" ry="2.87"/>
      <ellipse fill="#F7E3D2" cx="20.389" cy="26.646" rx="16.312" ry="16.398"/>
      <path d="M20.39 2.46c10.36 0 18.758 8.442 18.758 18.857H1.63C1.631 10.902 10.03 2.46 20.39 2.46z" fill="#FFDF32"/>
      <path d="M19.067 39.684a3.271 3.271 0 004.116-2.11l-6.205-2.017a3.271 3.271 0 002.09 4.127z" fill="#FAB595"/>
      <path d="M20.716 32.386a1.88 1.88 0 00-1.876 1.885h3.751a1.88 1.88 0 00-1.875-1.885z" fill="#F5BF92"/>
      <path fill="#FFD124" d="M0 18.857h40.779v4.919H0zM15.496 0h10.602v16.398H15.496z"/>
      <ellipse fill="#F5BF92" opacity=".2" cx="12.234" cy="33.206" rx="1.631" ry="1.64"/>
      <ellipse fill="#F5BF92" opacity=".2" cx="29.361" cy="33.206" rx="1.631" ry="1.64"/>
      <path fill="#A7A9AC" d="M4.078 25.007H7.34v3.28H4.078zM34.254 25.007h3.262v3.28h-3.262z"/>
      <path d="M13.645 34.026c-4.383 0-7.936-3.572-7.936-7.979 0-.94.162-1.842.46-2.68h14.953c.298.838.46 1.74.46 2.68 0 4.407-3.554 7.979-7.937 7.979z" fill="#F9F9F9"/>
      <path d="M27.886 34.026c-4.383 0-7.936-3.572-7.936-7.979 0-.94.162-1.842.46-2.68h14.953c.298.838.46 1.74.46 2.68 0 4.407-3.554 7.979-7.937 7.979z" fill="#F9F9F9"/>
    </g>
  </g>
</svg>
