<svg viewBox="0 0 49 49" xmlns="http://www.w3.org/2000/svg">
  <g transform="translate(.962 .962)" fill="none" fill-rule="evenodd">
    <circle fill="#FFF" cx="24" cy="24" r="24"/>
    <g transform="translate(6.582 6.105)">
      <ellipse fill="#F5BF92" cx="31.267" cy="22.797" rx="2.405" ry="2.418"/>
      <ellipse fill="#F5BF92" cx="3.779" cy="22.797" rx="2.405" ry="2.418"/>
      <ellipse fill="#F7E3D2" cx="17.179" cy="22.451" rx="13.744" ry="13.816"/>
      <path d="M17.18 2.072c8.728 0 15.805 7.114 15.805 15.89H1.375c0-8.776 7.076-15.89 15.804-15.89z" fill="#FFDF32"/>
      <path d="M16.065 33.437a2.756 2.756 0 003.468-1.779l-5.228-1.699a2.756 2.756 0 001.76 3.478z" fill="#FAB595"/>
      <path d="M17.454 27.287c-.873 0-1.58.712-1.58 1.589h3.16c0-.877-.707-1.589-1.58-1.589z" fill="#F5BF92"/>
      <path fill="#FFD124" d="M0 15.889h34.359v4.145H0zM13.056 0h8.933v13.816h-8.933z"/>
      <ellipse fill="#F5BF92" opacity=".2" cx="10.308" cy="27.978" rx="1.374" ry="1.382"/>
      <ellipse fill="#F5BF92" opacity=".2" cx="24.738" cy="27.978" rx="1.374" ry="1.382"/>
      <path fill="#A7A9AC" d="M3.436 21.07h2.749v2.763H3.436zM28.861 21.07h2.749v2.763h-2.749z"/>
      <path d="M5.197 19.689h12.6c.25.705.387 1.466.387 2.258 0 3.712-2.994 6.722-6.687 6.722s-6.687-3.01-6.687-6.722c0-.792.137-1.553.387-2.258z" fill="#F9F9F9"/>
      <path d="M17.196 19.689h12.6c.25.705.387 1.466.387 2.258 0 3.712-2.994 6.722-6.687 6.722s-6.687-3.01-6.687-6.722c0-.792.137-1.553.387-2.258z" fill="#F9F9F9"/>
    </g>
  </g>
</svg>
