<?xml version="1.0" encoding="UTF-8"?>
<svg width="25px" height="25px" viewBox="0 0 25 25" version="1.1" xmlns="http://www.w3.org/2000/svg" xmlns:xlink="http://www.w3.org/1999/xlink">
    <!-- Generator: Sketch 63.1 (92452) - https://sketch.com -->
    <title>Group 18</title>
    <desc>Created with Sketch.</desc>
    <g id="Wireframes-v2-+-vorm" stroke="none" stroke-width="1" fill="none" fill-rule="evenodd">
        <g id="Group-12-Copy" transform="translate(0.000000, -0.000000)">
            <g id="Group-6">
                <g id="Group-18">
                    <circle id="Oval" fill="#F7EBFF" cx="12.5" cy="12.5" r="12.5"></circle>
                    <path d="M18.5744531,11.2466719 L17.4444688,11.2466719 L17.4444688,8.45553125 L17.4444688,8.45553125 L14.0977813,8.45553125 L14.0977813,7.32554688 C14.0977813,6.37654688 13.3212344,5.6 12.3722344,5.6 C11.4232344,5.6 10.6466875,6.37654688 10.6466875,7.32554688 L10.6466875,8.45553125 L7.3,8.45553125 L7.3,11.2466719 L8.660125,11.2466719 C9.609125,11.2466719 10.3856719,12.0232188 10.3856719,12.9722188 C10.3856719,13.9212188 9.609125,14.6977656 8.660125,14.6977656 L7.3,14.6977656 L7.3,18.6 L10.6466875,18.6 L10.6466875,17.239875 C10.6466875,16.290875 11.4232344,15.5143281 12.3722344,15.5143281 C13.3212344,15.5143281 14.0977813,16.290875 14.0977813,17.239875 L14.0977813,18.6 L17.4444688,18.6 L17.4444688,18.6 L17.4444688,14.6977656 L18.5744531,14.6977656 C19.5234531,14.6977656 20.3,13.9212188 20.3,12.9722188 C20.3,12.0232188 19.5234531,11.2466719 18.5744531,11.2466719 Z" id="Path" fill="#7919EF" fill-rule="nonzero"></path>
                </g>
            </g>
        </g>
    </g>
</svg>