<?xml version="1.0" encoding="UTF-8"?>
<svg width="25px" height="25px" viewBox="0 0 25 25" version="1.1" xmlns="http://www.w3.org/2000/svg" xmlns:xlink="http://www.w3.org/1999/xlink">
    <!-- Generator: Sketch 63.1 (92452) - https://sketch.com -->
    <title>icon-Creatief</title>
    <desc>Created with Sketch.</desc>
    <g id="Wireframes-v2-+-vorm" stroke="none" stroke-width="1" fill="none" fill-rule="evenodd">
        <g id="icon-Creatief">
            <circle id="Oval" fill="#F7EBFF" cx="12.5" cy="12.5" r="12.5"></circle>
            <path d="M7.33211914,15.3011348 C8.27281641,14.1253203 10.1387227,13.838584 11.2510605,14.9510234 C12.4052168,16.1052559 12.1109141,17.8325293 11.1596035,18.8355859 C10.1478125,19.9024238 7.96465039,20.3843379 6.23105469,19.6421699 C5.98735547,19.5378398 5.92233008,19.2221074 6.10460938,19.0299258 C7.15138867,17.9261953 6.22239648,16.6883008 7.33211914,15.3011348 Z M11.2503496,12.5155293 L13.6502715,14.9155781 C13.2592559,15.2431426 12.9048027,15.5305645 12.6150957,15.7616445 C12.3126426,14.7922559 11.5210645,13.9200625 10.4162676,13.6104238 C10.6430059,13.3047207 10.9266191,12.9296758 11.2503496,12.5155293 L11.2503496,12.5155293 Z M17.467752,7.00901367 C18.353834,6.91565234 19.045373,7.55745117 18.9975371,8.4451582 C18.8990215,10.2941289 15.6429023,13.2044023 14.2324785,14.4206641 L14.2324785,14.4206641 L11.7271855,11.9152441 C12.886166,10.4776523 15.6244941,7.20279492 17.467752,7.00901367 Z" id="Combined-Shape" fill="#7919EF" fill-rule="nonzero"></path>
        </g>
    </g>
</svg>