<?xml version="1.0" encoding="UTF-8"?>
<svg width="25px" height="25px" viewBox="0 0 25 25" version="1.1" xmlns="http://www.w3.org/2000/svg" xmlns:xlink="http://www.w3.org/1999/xlink">
    <!-- Generator: Sketch 63.1 (92452) - https://sketch.com -->
    <title>icon-Beweging</title>
    <desc>Created with Sketch.</desc>
    <g id="Wireframes-v2-+-vorm" stroke="none" stroke-width="1" fill="none" fill-rule="evenodd">
        <g id="icon-Beweging">
            <circle id="Oval" fill="#EBEBFF" cx="12.5" cy="12.5" r="12.5"></circle>
            <path d="M12.5,5 C8.3646875,5 5,8.3646875 5,12.5 C5,16.6353125 8.3646875,20 12.5,20 C16.6353125,20 20,16.6353125 20,12.5 C20,8.3646875 16.6353125,5 12.5,5 Z M12.97625,7.4365625 L14.9046875,6.3996875 C15.9725,6.8225 16.904375,7.5153125 17.613125,8.3965625 L17.15375,10.5171875 L15.6828125,11.238125 L12.97625,9.2665625 L12.97625,7.4365625 Z M10.11125,6.3940625 L12.0396875,7.4346875 L12.0396875,9.2665625 L9.335,11.238125 L7.8565625,10.51625 L7.3971875,8.3825 C8.1078125,7.503125 9.0415625,6.8140625 10.11125,6.3940625 Z M7.090625,16.206875 C6.4784375,15.31625 6.08,14.2690625 5.9703125,13.1375 L7.5575,11.4134375 L9.005,12.12125 L10.0953125,15.2178125 L9.17375,16.3221875 L7.090625,16.206875 Z M14.1715625,18.8384375 C13.63625,18.98 13.0784375,19.0625 12.5,19.0625 C11.800625,19.0625 11.1275,18.95 10.4946875,18.7465625 L9.905,16.9109375 L10.8453125,15.78125 L14.1584375,15.78125 L15.081875,16.874375 L14.1715625,18.8384375 Z M15.813125,16.2903125 L14.9065625,15.216875 L16.011875,12.12125 L17.4528125,11.4153125 L19.030625,13.1384375 C18.9359375,14.114375 18.621875,15.0246875 18.1446875,15.83 L15.813125,16.2903125 Z" id="Shape" fill="#1B34F1" fill-rule="nonzero"></path>
        </g>
    </g>
</svg>