<?xml version="1.0" encoding="UTF-8"?>
<svg width="25px" height="25px" viewBox="0 0 25 25" version="1.1" xmlns="http://www.w3.org/2000/svg" xmlns:xlink="http://www.w3.org/1999/xlink">
    <!-- Generator: Sketch 63.1 (92452) - https://sketch.com -->
    <title>icon-Ontspanning</title>
    <desc>Created with Sketch.</desc>
    <g id="Wireframes-v2-+-vorm" stroke="none" stroke-width="1" fill="none" fill-rule="evenodd">
        <g id="icon-Ontspanning" transform="translate(0.000000, -0.000000)">
            <circle id="Oval" fill="#EBFFF0" cx="12.5" cy="12.5" r="12.5"></circle>
            <path d="M6.28715232,12.2999669 C6.46688742,13.0449007 6.76347682,13.7059272 7.16864238,14.2647682 C7.57410596,14.8240066 8.11069536,15.3116887 8.76344371,15.7142715 C9.26374172,16.0227815 9.83370861,16.2823841 10.4575497,16.4858609 C10.6124834,16.5363907 10.7631457,16.5808278 10.9078146,16.6201325 C9.96029801,16.9380464 8.71125828,17.1660596 7.52966887,16.790298 C5.18887417,16.0458609 4,13.2138742 4,13.2138742 C4,13.2138742 4.9847351,12.6001656 6.28715232,12.2999669 Z M18.666457,12.2999669 C19.9689073,12.6001656 20.9536424,13.2138742 20.9536424,13.2138742 C20.9536424,13.2138742 19.7647682,16.0458609 17.4239404,16.790298 C16.242351,17.1660927 14.9933113,16.9380795 14.0457947,16.6201325 C14.1904636,16.5808278 14.3411258,16.5363907 14.4960596,16.4858609 C15.1199007,16.2824172 15.6899007,16.0228146 16.1901656,15.7142715 C16.842947,15.3116556 17.3795033,14.8240066 17.7849669,14.2647682 C18.1901656,13.7059272 18.4867219,13.0449007 18.666457,12.2999669 Z M12.4768212,7.01453642 C12.4768212,7.01453642 14.8153311,9.0057947 14.8153311,11.4621192 C14.8153311,13.9184437 12.4768212,15.909702 12.4768212,15.909702 C12.4768212,15.909702 10.1383113,13.9184437 10.1383113,11.4621192 C10.1383113,9.16426725 12.1848116,7.27340874 12.4488762,7.03899141 Z M7.25536424,8.70821192 C7.25536424,8.70821192 8.38884106,8.79705298 9.60125828,9.31443709 L9.60125828,9.31443709 L9.58523179,9.35245033 C9.29307947,10.0615563 9.14493377,10.7713245 9.14493377,11.4620861 C9.14493377,12.1528477 9.29307947,12.8626159 9.58523179,13.5717219 C9.80913907,14.1151987 10.1182119,14.6599338 10.5038411,15.1908278 C10.5942053,15.3152649 10.684702,15.4330132 10.7736424,15.5440066 C9.82622517,15.2361258 8.69589404,14.6788411 7.97284768,13.6816225 C6.53099338,11.6929801 7.25536424,8.70821192 7.25536424,8.70821192 Z M17.698245,8.70827815 C17.698245,8.70827815 18.4226159,11.6930464 16.9807616,13.6816887 C16.2577815,14.6788742 15.1274172,15.2361589 14.18,15.5440397 C14.2689404,15.4330132 14.3594371,15.315298 14.4498013,15.1908609 C14.8354305,14.6599338 15.1445033,14.1151987 15.3684106,13.571755 C15.6605629,12.862649 15.8087086,12.1528808 15.8087086,11.4621192 C15.8087086,10.7713907 15.6605629,10.0615894 15.3683775,9.35251656 L15.3683775,9.35251656 L15.352351,9.31450331 C16.5648013,8.79711921 17.698245,8.70827815 17.698245,8.70827815 Z" id="Combined-Shape" fill="#41CC53" fill-rule="nonzero"></path>
        </g>
    </g>
</svg>