<svg viewBox="0 0 21 21" xmlns="http://www.w3.org/2000/svg">
  <path d="M10.5 0C16.299 0 21 4.701 21 10.5S16.299 21 10.5 21 0 16.299 0 10.5 4.701 0 10.5 0zm2.406 5.25a1.898 1.898 0 00-1.842 2.344L7.59 9.577a1.89 1.89 0 00-1.32-.535c-1.045 0-1.895.85-1.895 1.896 0 1.045.85 1.895 1.896 1.895a1.89 1.89 0 001.319-.535l3.474 1.982a1.895 1.895 0 001.842 2.345c1.046 0 1.896-.85 1.896-1.896 0-1.045-.85-1.896-1.896-1.896-.55 0-1.046.236-1.392.61l-3.43-1.953a1.89 1.89 0 000-1.105l3.429-1.955c.346.376.843.612 1.393.612 1.046 0 1.896-.85 1.896-1.896 0-1.046-.85-1.896-1.896-1.896z" fill="#1B34F1" fill-rule="nonzero"/>
</svg>
