<?xml version="1.0" encoding="UTF-8"?>
<svg width="17px" height="17px" viewBox="0 0 17 17" version="1.1" xmlns="http://www.w3.org/2000/svg" xmlns:xlink="http://www.w3.org/1999/xlink">
    <!-- Generator: Sketch 63.1 (92452) - https://sketch.com -->
    <title>Group 4</title>
    <desc>Created with Sketch.</desc>
    <g id="Wireframes-v2-+-vorm" stroke="none" stroke-width="1" fill="none" fill-rule="evenodd">
        <g id="Baandeel-toevoegen---booster-Copy-4" transform="translate(-671.000000, -345.000000)">
            <g id="Group-4" transform="translate(671.000000, 345.000000)">
                <circle id="Mask" fill="#FD7A8C" cx="8.5" cy="8.5" r="8.5"></circle>
                <path d="M10.3413387,5.66666667 C9.90287487,5.66666667 9.50088258,5.80156899 9.14655113,6.06763487 C8.80684934,6.32271427 8.58068134,6.64760456 8.44753086,6.88385218 C8.31438039,6.64758923 8.08821238,6.32271427 7.7485106,6.06763487 C7.39417914,5.80156899 6.99218686,5.66666667 6.55372299,5.66666667 C5.33013373,5.66666667 4.40740741,6.63839553 4.40740741,7.92700082 C4.40740741,9.31914258 5.5585743,10.2716259 7.30128787,11.7135516 C7.59722691,11.958426 7.93266763,12.235984 8.28131766,12.5320061 C8.32727406,12.5710793 8.38629774,12.5925926 8.44753086,12.5925926 C8.50876399,12.5925926 8.56778766,12.5710793 8.61374407,12.5320214 C8.96242566,12.2359534 9.2978506,11.9584107 9.59396324,11.7133984 C11.3364874,10.2716259 12.4876543,9.31914258 12.4876543,7.92700082 C12.4876543,6.63839553 11.564928,5.66666667 10.3413387,5.66666667 Z" id="Path" fill="#FFFFFF" fill-rule="nonzero"></path>
            </g>
        </g>
    </g>
</svg>