<?xml version="1.0" standalone="no"?>
<!DOCTYPE svg PUBLIC "-//W3C//DTD SVG 20010904//EN"
 "http://www.w3.org/TR/2001/REC-SVG-20010904/DTD/svg10.dtd">
<svg version="1.0" xmlns="http://www.w3.org/2000/svg"
 width="136.000000pt" height="136.000000pt" viewBox="0 0 136.000000 136.000000"
 preserveAspectRatio="xMidYMid meet">
<metadata>
Created by potrace 1.11, written by Peter Selinger 2001-2013
</metadata>
<g transform="translate(0.000000,136.000000) scale(0.100000,-0.100000)"
fill="#000000" stroke="none">
<path d="M508 1314 c-3 -46 -3 -46 -63 -71 -81 -34 -140 -75 -203 -142 -62
-64 -128 -192 -138 -264 -6 -44 -9 -47 -35 -47 l-29 0 0 -75 c0 -55 3 -75 13
-74 6 1 36 1 66 0 l54 -1 -34 -23 c-65 -43 -64 -116 2 -151 29 -16 38 -29 52
-76 30 -104 134 -223 245 -279 97 -49 236 -64 343 -36 159 42 307 187 348 342
8 30 16 40 29 38 41 -6 92 45 92 93 0 29 -44 73 -80 82 -30 7 -26 8 31 9 l67
1 3 43 c2 23 3 57 1 75 -3 26 -7 32 -27 32 -19 0 -26 7 -31 28 -41 186 -149
329 -311 409 l-73 36 0 49 0 48 -159 0 -160 0 -3 -46z"/>
</g>
</svg>
